<svg width="220" height="64" viewBox="0 0 220 64" fill="none" xmlns="http://www.w3.org/2000/svg">
<path d="M52.7848 19.9927C51.3574 17.524 48.7198 16 45.8683 16H36.6176C33.7627 16 31.1251 17.524 29.7011 19.9927L25.0706 28.0056C23.6431 30.4778 23.6431 33.5223 25.0706 35.9944L29.6977 44.0073C31.1251 46.4795 33.7627 48 36.6142 48H45.8649C48.7198 48 51.3574 46.476 52.7814 44.0073L57.4085 35.9944C58.8359 33.5223 58.8359 30.4778 57.4085 28.0056L52.7814 19.9927H52.7848ZM55.0984 39.1734C55.0984 39.6837 54.826 40.156 54.3847 40.4077L41.955 47.5828C41.5136 47.838 40.9689 47.838 40.5275 47.5828L28.0978 40.4112C27.6565 40.156 27.3841 39.6837 27.3841 39.1768V24.8232C27.3841 24.3129 27.6565 23.8405 28.0978 23.5888L40.5275 16.4103C40.9689 16.1552 41.5136 16.1552 41.955 16.4103L54.3847 23.5854C54.826 23.8405 55.0984 24.3129 55.0984 24.8197V39.1734Z" fill="white"/>
<path fill-rule="evenodd" clip-rule="evenodd" d="M82.759 24.6099H78.6376L72.568 31.6918V24.6099H69.479V39.4591H72.568V35.5755L75.0408 32.9047L79.0956 39.4591H83.1004L77.1473 30.6659L82.759 24.6099ZM93.8622 36.6057V31.3513C93.8622 28.8384 92.0304 27.6961 88.4835 27.6961C85.3946 27.6961 83.3339 29.0668 83.3339 31.4635H86.3104C86.3104 30.666 86.6518 29.7522 88.6001 29.7522C90.3153 29.7522 90.8898 30.4375 90.8898 31.235C90.8898 31.8041 90.6608 32.3773 88.3711 32.3773C84.5953 32.3773 83.1049 33.8643 83.1049 36.1446C83.1049 38.0844 84.2497 39.7998 86.9973 39.7998C89.7449 39.7998 90.8898 37.7438 90.8898 37.7438V37.8601C90.8898 39.2308 91.2311 39.4592 91.2311 39.4592H94.4367V39.3471C94.4367 39.3471 93.8622 38.8902 93.8622 36.6057ZM90.8856 34.5496C90.8856 36.7178 89.2828 37.6316 87.909 37.6316C86.6518 37.6316 85.9649 37.0626 85.9649 35.9162C85.9649 35.0024 86.6518 34.317 88.138 34.317C90.0746 34.317 90.8036 33.6187 90.8796 33.5459C90.8825 33.5431 90.8856 33.5403 90.8856 33.5403V34.5496ZM98.3242 29.9806C98.3242 29.9806 99.469 27.6961 102.217 27.6961C104.964 27.6961 107.366 29.6483 107.366 33.7563C107.366 37.8642 104.964 39.8081 102.217 39.8081C99.469 39.8081 98.3242 37.7521 98.3242 37.7521V42.8901H95.3476V28.0409H98.3242V29.9806ZM98.3242 33.7521C98.3242 36.6057 99.8145 37.7479 101.301 37.7479C102.791 37.7479 104.277 36.6057 104.277 33.7521C104.277 30.8986 102.791 29.7563 101.301 29.7563C99.8104 29.7563 98.3242 30.8986 98.3242 33.7521ZM114.007 32.3773C111.717 32.3773 111.376 31.6919 111.376 31.1229C111.376 30.5538 111.95 29.7522 113.549 29.7522C115.264 29.7522 115.839 30.5497 115.839 31.4635H118.815C118.815 30.2091 118.245 27.6961 113.666 27.6961C110.119 27.6961 108.399 29.2953 108.399 31.235C108.399 33.2911 109.773 34.4333 113.32 34.4333C115.722 34.4333 116.18 35.1187 116.18 35.9162C116.18 36.7137 115.722 37.7438 113.778 37.7438C112.292 37.7438 111.259 37.0584 111.259 35.6877H108.17C108.17 37.7438 109.544 39.7998 113.778 39.7998C117.554 39.7998 119.273 37.9722 119.273 35.804C119.273 33.1748 117.329 32.3773 114.007 32.3773ZM121.908 24.6099H124.885V28.0366H127.403V30.3211H124.885V36.1445C124.885 37.1705 125.23 37.3989 126.029 37.3989C126.487 37.3989 127.403 37.2826 127.403 37.2826V39.455C127.403 39.455 125.913 39.6834 124.885 39.6834C122.478 39.6834 121.908 38.8859 121.908 36.1445V30.3211H119.618V28.0366H121.908V24.6099ZM139.077 36.6057V31.3513C139.077 28.8384 137.245 27.6961 133.698 27.6961C130.609 27.6961 128.548 29.0668 128.548 31.4635H131.525C131.525 30.666 131.866 29.7522 133.814 29.7522C135.53 29.7522 136.104 30.4375 136.104 31.235C136.104 31.8041 135.875 32.3773 133.585 32.3773C129.81 32.3773 128.319 33.8643 128.319 36.1446C128.319 38.0844 129.464 39.7998 132.212 39.7998C134.959 39.7998 136.104 37.7438 136.104 37.7438V37.8601C136.104 39.2308 136.446 39.4592 136.446 39.4592H139.651V39.3471C139.651 39.3471 139.081 38.8902 139.081 36.6057H139.077ZM136.1 34.5496C136.1 36.7178 134.497 37.6316 133.123 37.6316C131.866 37.6316 131.179 37.0626 131.179 35.9162C131.179 35.0024 131.866 34.317 133.352 34.317C135.289 34.317 136.018 33.6187 136.094 33.5459C136.097 33.5431 136.1 33.5403 136.1 33.5403V34.5496ZM143.544 30.2091C143.544 30.2091 145.146 27.6962 147.665 27.6962C150.413 27.6962 151.553 29.4033 151.553 31.9162V39.4551H148.577V32.7179C148.577 30.7781 147.777 30.0928 146.404 30.0928C145.03 30.0928 143.544 31.1229 143.544 33.748V39.4592H140.567V28.0368H143.544V30.2091Z" fill="white"/>
</svg>
